<?xml version="1.0" standalone="no"?>
<!DOCTYPE svg PUBLIC "-//W3C//DTD SVG 20010904//EN"
 "http://www.w3.org/TR/2001/REC-SVG-20010904/DTD/svg10.dtd">
<svg version="1.0" xmlns="http://www.w3.org/2000/svg"
 width="700.000000pt" height="700.000000pt" viewBox="0 0 700.000000 700.000000"
 preserveAspectRatio="xMidYMid meet">
<metadata>
Created by potrace 1.14, written by Peter Selinger 2001-2017
</metadata>
<g transform="translate(0.000000,700.000000) scale(0.100000,-0.100000)"
fill="#000000" stroke="none">
<path d="M3365 6980 c-323 -70 -591 -251 -770 -520 -130 -195 -205 -429 -205
-640 l0 -77 -77 -28 c-283 -100 -546 -331 -681 -600 -155 -310 -172 -693 -43
-1002 56 -134 1905 -4113 1911 -4113 6 0 1855 3979 1911 4113 127 304 112 693
-38 992 -92 183 -272 383 -440 489 l-91 57 -6 107 c-14 258 -44 389 -126 558
-158 326 -445 558 -810 656 -114 30 -411 35 -535 8z m360 -221 c392 -48 720
-326 830 -705 20 -69 51 -292 42 -301 -1 -1 -29 5 -62 14 -94 23 -351 28 -461
9 -183 -32 -379 -112 -515 -212 l-59 -44 -59 44 c-192 141 -457 226 -704 226
l-110 0 6 83 c24 321 233 630 527 781 187 96 367 129 565 105z m-765 -1239
c109 -26 285 -113 375 -184 383 -306 487 -857 238 -1268 l-34 -58 -814 0 -814
0 -34 58 c-169 279 -181 638 -31 937 144 285 419 483 742 535 86 14 275 3 372
-20z m1550 0 c101 -25 248 -93 335 -155 414 -295 537 -869 278 -1297 l-34 -58
-630 0 c-429 0 -629 3 -629 10 0 6 8 27 19 48 61 123 101 315 101 492 0 265
-69 489 -216 703 -30 43 -54 81 -54 83 0 11 146 97 210 125 62 26 184 60 265
73 65 10 272 -4 355 -24z m-990 -1845 l0 -105 -719 0 -720 0 -45 96 c-25 53
-46 101 -46 105 0 5 341 9 765 9 l765 0 0 -105z m1490 100 c0 -3 -193 -422
-430 -932 l-429 -928 -306 -3 -305 -2 0 715 0 715 265 0 265 0 0 115 0 115
-265 0 -265 0 0 105 0 105 735 0 c404 0 735 -2 735 -5z m-1490 -1150 l0 -715
-336 2 -337 3 -328 709 c-181 390 -329 711 -329 713 0 2 299 3 665 3 l665 0 0
-715z m-10 -1060 l0 -125 -220 0 -220 0 -49 105 c-27 58 -53 114 -56 125 -6
20 -1 20 269 20 l276 0 0 -125z m525 106 c-7 -22 -485 -1054 -491 -1060 -2 -2
-4 239 -4 537 l0 542 251 0 c239 0 250 -1 244 -19z m-525 -801 c0 -192 -3
-350 -7 -350 -5 0 -57 107 -117 238 -61 130 -133 288 -162 350 l-53 112 169 0
170 0 0 -350z"/>
<path d="M3700 6445 l0 -125 44 0 c92 0 207 -52 281 -125 72 -73 125 -189 125
-276 l0 -39 126 0 127 0 -7 63 c-28 250 -162 445 -378 551 -91 45 -208 76
-283 76 l-35 0 0 -125z m155 90 c142 -30 291 -122 379 -235 80 -101 145 -269
146 -372 l0 -28 -103 0 -103 0 -11 66 c-16 93 -57 169 -127 240 -73 72 -150
112 -246 127 l-70 11 0 103 0 103 33 0 c17 0 63 -7 102 -15z"/>
<path d="M2465 5335 c-128 -28 -261 -108 -355 -212 -93 -104 -169 -294 -170
-420 l0 -43 119 0 118 0 12 71 c15 93 50 166 113 234 75 82 157 125 271 140
l47 6 0 120 0 119 -47 -1 c-27 0 -75 -7 -108 -14z m135 -109 l0 -103 -56 -6
c-110 -11 -238 -94 -304 -197 -37 -57 -70 -155 -70 -206 l0 -34 -105 0 -105 0
0 43 c0 64 25 152 72 247 54 112 178 240 281 290 85 41 178 68 240 69 l47 1 0
-104z"/>
<path d="M4270 3455 l0 -115 170 0 170 0 0 115 0 115 -170 0 -170 0 0 -115z"/>
</g>
</svg>
